# Blender 4.4.1
# www.blender.org
mtllib sky_sphere.mtl
o 球
v 0.000000 1.831470 -0.555570
v 0.000000 1.555570 -0.831470
v 0.000000 1.195090 -0.980786
v 0.000000 1.000000 -1.000000
v 0.000000 0.804910 -0.980786
v 0.000000 0.444430 -0.831470
v -0.038060 1.980785 -0.191342
v -0.074658 1.923880 -0.375330
v -0.108386 1.831470 -0.544895
v -0.137950 1.707107 -0.693520
v -0.162212 1.555570 -0.815493
v -0.180240 1.382684 -0.906128
v -0.191342 1.195090 -0.961940
v -0.195090 1.000000 -0.980786
v -0.191342 0.804910 -0.961940
v -0.180240 0.617317 -0.906128
v -0.162212 0.444430 -0.815493
v -0.137950 0.292893 -0.693520
v -0.108386 0.168530 -0.544895
v -0.074658 0.076120 -0.375330
v -0.038060 0.019215 -0.191342
v -0.074658 1.980785 -0.180240
v -0.146447 1.923880 -0.353554
v -0.212608 1.831470 -0.513280
v -0.270598 1.707107 -0.653282
v -0.318190 1.555570 -0.768178
v -0.353553 1.382684 -0.853554
v -0.375330 1.195090 -0.906128
v -0.382683 1.000000 -0.923880
v -0.375330 0.804910 -0.906128
v -0.353553 0.617317 -0.853554
v -0.318190 0.444430 -0.768178
v -0.270598 0.292893 -0.653282
v -0.212608 0.168530 -0.513280
v -0.146447 0.076120 -0.353554
v -0.074658 0.019215 -0.180240
v -0.108386 1.980785 -0.162212
v -0.212608 1.923880 -0.318190
v -0.308658 1.831470 -0.461940
v -0.392847 1.707107 -0.587938
v -0.461940 1.555570 -0.691342
v -0.513280 1.382684 -0.768178
v -0.544895 1.195090 -0.815493
v -0.555570 1.000000 -0.831470
v -0.544895 0.804910 -0.815493
v -0.513280 0.617317 -0.768178
v -0.461940 0.444430 -0.691342
v -0.392847 0.292893 -0.587938
v -0.308658 0.168530 -0.461940
v -0.212608 0.076120 -0.318190
v -0.108386 0.019215 -0.162212
v -0.137950 1.980785 -0.137950
v -0.270598 1.923880 -0.270598
v -0.392847 1.831470 -0.392848
v -0.500000 1.707107 -0.500000
v -0.587938 1.555570 -0.587938
v -0.653281 1.382684 -0.653282
v -0.693520 1.195090 -0.693520
v -0.707107 1.000000 -0.707107
v -0.693520 0.804910 -0.693520
v -0.653281 0.617317 -0.653282
v -0.587938 0.444430 -0.587938
v -0.500000 0.292893 -0.500000
v -0.392847 0.168530 -0.392848
v -0.270598 0.076120 -0.270598
v -0.137950 0.019215 -0.137950
v -0.162212 1.980785 -0.108386
v -0.318190 1.923880 -0.212608
v -0.461940 1.831470 -0.308658
v -0.587938 1.707107 -0.392848
v -0.691342 1.555570 -0.461940
v -0.768178 1.382684 -0.513280
v -0.815493 1.195090 -0.544895
v -0.831470 1.000000 -0.555570
v -0.815493 0.804910 -0.544895
v -0.768178 0.617317 -0.513280
v -0.691342 0.444430 -0.461940
v -0.587938 0.292893 -0.392848
v -0.461940 0.168530 -0.308658
v -0.318190 0.076120 -0.212608
v -0.162212 0.019215 -0.108386
v 0.000000 2.000000 0.000000
v -0.180240 1.980785 -0.074658
v -0.353553 1.923880 -0.146447
v -0.513280 1.831470 -0.212608
v -0.653281 1.707107 -0.270598
v -0.768178 1.555570 -0.318190
v -0.853553 1.382684 -0.353554
v -0.906127 1.195090 -0.375330
v -0.923879 1.000000 -0.382683
v -0.906127 0.804910 -0.375330
v -0.853553 0.617317 -0.353554
v -0.768178 0.444430 -0.318190
v -0.653281 0.292893 -0.270598
v -0.513280 0.168530 -0.212608
v -0.353553 0.076120 -0.146447
v -0.180240 0.019215 -0.074658
v -0.191342 1.980785 -0.038060
v -0.375330 1.923880 -0.074658
v -0.544895 1.831470 -0.108386
v -0.693520 1.707107 -0.137950
v -0.815493 1.555570 -0.162212
v -0.906127 1.382684 -0.180240
v -0.961940 1.195090 -0.191342
v -0.980785 1.000000 -0.195090
v -0.961940 0.804910 -0.191342
v -0.906127 0.617317 -0.180240
v -0.815493 0.444430 -0.162212
v -0.693520 0.292893 -0.137950
v -0.544895 0.168530 -0.108386
v -0.375330 0.076120 -0.074658
v -0.191342 0.019215 -0.038060
v -0.195090 1.980785 0.000000
v -0.382683 1.923880 0.000000
v -0.555570 1.831470 0.000000
v -0.707107 1.707107 -0.000000
v -0.831469 1.555570 0.000000
v -0.923879 1.382684 -0.000000
v -0.980785 1.195090 0.000000
v -1.000000 1.000000 0.000000
v -0.980785 0.804910 0.000000
v -0.923879 0.617317 -0.000000
v -0.831469 0.444430 0.000000
v -0.707107 0.292893 -0.000000
v -0.555570 0.168530 0.000000
v -0.382683 0.076120 0.000000
v -0.195090 0.019215 0.000000
v -0.191342 1.980785 0.038060
v -0.375330 1.923880 0.074658
v -0.544895 1.831470 0.108386
v -0.693520 1.707107 0.137950
v -0.815493 1.555570 0.162212
v -0.906127 1.382684 0.180240
v -0.961940 1.195090 0.191342
v -0.980785 1.000000 0.195091
v -0.961940 0.804910 0.191342
v -0.906127 0.617317 0.180240
v -0.815493 0.444430 0.162212
v -0.693520 0.292893 0.137950
v -0.544895 0.168530 0.108386
v -0.375330 0.076120 0.074658
v -0.191342 0.019215 0.038060
v -0.180240 1.980785 0.074658
v -0.353553 1.923880 0.146447
v -0.513280 1.831470 0.212608
v -0.653281 1.707107 0.270598
v -0.768178 1.555570 0.318190
v -0.853553 1.382684 0.353553
v -0.906127 1.195090 0.375330
v -0.923879 1.000000 0.382684
v -0.906127 0.804910 0.375330
v -0.853553 0.617317 0.353553
v -0.768178 0.444430 0.318190
v -0.653281 0.292893 0.270598
v -0.513280 0.168530 0.212608
v -0.353553 0.076120 0.146447
v -0.180240 0.019215 0.074658
v -0.162212 1.980785 0.108386
v -0.318190 1.923880 0.212608
v -0.461940 1.831470 0.308658
v -0.587938 1.707107 0.392848
v -0.691341 1.555570 0.461940
v -0.768178 1.382684 0.513280
v -0.815493 1.195090 0.544895
v -0.831469 1.000000 0.555570
v -0.815493 0.804910 0.544895
v -0.768178 0.617317 0.513280
v -0.691341 0.444430 0.461940
v -0.587938 0.292893 0.392848
v -0.461940 0.168530 0.308658
v -0.318190 0.076120 0.212608
v -0.162212 0.019215 0.108386
v -0.137950 1.980785 0.137950
v -0.270598 1.923880 0.270598
v -0.392847 1.831470 0.392848
v -0.500000 1.707107 0.500000
v -0.587938 1.555570 0.587938
v -0.653281 1.382684 0.653282
v -0.693520 1.195090 0.693520
v -0.707106 1.000000 0.707107
v -0.693520 0.804910 0.693520
v -0.653281 0.617317 0.653282
v -0.587938 0.444430 0.587938
v -0.500000 0.292893 0.500000
v -0.392847 0.168530 0.392848
v -0.270598 0.076120 0.270598
v -0.137950 0.019215 0.137950
v -0.108386 1.980785 0.162212
v -0.212607 1.923880 0.318190
v -0.308658 1.831470 0.461940
v -0.392847 1.707107 0.587938
v -0.461940 1.555570 0.691342
v -0.513280 1.382684 0.768178
v -0.544895 1.195090 0.815493
v -0.555570 1.000000 0.831470
v -0.544895 0.804910 0.815493
v -0.513280 0.617317 0.768178
v -0.461940 0.444430 0.691342
v -0.392847 0.292893 0.587938
v -0.308658 0.168530 0.461940
v -0.212607 0.076120 0.318190
v -0.108386 0.019215 0.162212
v -0.074658 1.980785 0.180240
v -0.146447 1.923880 0.353553
v -0.212607 1.831470 0.513280
v -0.270598 1.707107 0.653282
v -0.318189 1.555570 0.768178
v -0.353553 1.382684 0.853553
v -0.375330 1.195090 0.906128
v -0.382683 1.000000 0.923880
v -0.375330 0.804910 0.906128
v -0.353553 0.617317 0.853553
v -0.318189 0.444430 0.768178
v -0.270598 0.292893 0.653282
v -0.212607 0.168530 0.513280
v -0.146447 0.076120 0.353553
v -0.074658 0.019215 0.180240
v -0.038060 1.980785 0.191342
v -0.074658 1.923880 0.375330
v -0.108386 1.831470 0.544895
v -0.137950 1.707107 0.693520
v -0.162212 1.555570 0.815493
v -0.180240 1.382684 0.906128
v -0.191342 1.195090 0.961940
v -0.195090 1.000000 0.980785
v -0.191342 0.804910 0.961940
v -0.180240 0.617317 0.906128
v -0.162212 0.444430 0.815493
v -0.137950 0.292893 0.693520
v -0.108386 0.168530 0.544895
v -0.074658 0.076120 0.375330
v -0.038060 0.019215 0.191342
v 0.000000 1.980785 0.195090
v 0.000000 1.923880 0.382683
v 0.000000 1.831470 0.555570
v 0.000000 1.707107 0.707107
v 0.000000 1.555570 0.831470
v -0.000000 1.382684 0.923880
v 0.000000 1.195090 0.980785
v 0.000000 1.000000 1.000000
v 0.000000 0.804910 0.980785
v -0.000000 0.617317 0.923880
v 0.000000 0.444430 0.831470
v 0.000000 0.292893 0.707107
v 0.000000 0.168530 0.555570
v 0.000000 0.076120 0.382683
v 0.000000 0.019215 0.195090
v 0.038060 1.980785 0.191342
v 0.074658 1.923880 0.375330
v 0.108386 1.831470 0.544895
v 0.137950 1.707107 0.693520
v 0.162212 1.555570 0.815493
v 0.180240 1.382684 0.906127
v 0.191342 1.195090 0.961940
v 0.195091 1.000000 0.980785
v 0.191342 0.804910 0.961940
v 0.180240 0.617317 0.906127
v 0.162212 0.444430 0.815493
v 0.137950 0.292893 0.693520
v 0.108386 0.168530 0.544895
v 0.074658 0.076120 0.375330
v 0.038060 0.019215 0.191342
v 0.074658 1.980785 0.180240
v 0.146447 1.923880 0.353553
v 0.212608 1.831470 0.513280
v 0.270598 1.707107 0.653282
v 0.318190 1.555570 0.768178
v 0.353553 1.382684 0.853553
v 0.375330 1.195090 0.906127
v 0.382683 1.000000 0.923879
v 0.375330 0.804910 0.906127
v 0.353553 0.617317 0.853553
v 0.318190 0.444430 0.768178
v 0.270598 0.292893 0.653282
v 0.212608 0.168530 0.513280
v 0.146447 0.076120 0.353553
v 0.074658 0.019215 0.180240
v 0.108386 1.980785 0.162212
v 0.212608 1.923880 0.318190
v 0.308658 1.831470 0.461940
v 0.392847 1.707107 0.587938
v 0.461940 1.555570 0.691342
v 0.513280 1.382684 0.768178
v 0.544895 1.195090 0.815493
v 0.555570 1.000000 0.831469
v 0.544895 0.804910 0.815493
v 0.513280 0.617317 0.768178
v 0.461940 0.444430 0.691342
v 0.392847 0.292893 0.587938
v 0.308658 0.168530 0.461940
v 0.212608 0.076120 0.318190
v 0.108386 0.019215 0.162212
v 0.137950 1.980785 0.137950
v 0.270598 1.923880 0.270598
v 0.392847 1.831470 0.392847
v 0.500000 1.707107 0.500000
v 0.587938 1.555570 0.587938
v 0.653281 1.382684 0.653282
v 0.693520 1.195090 0.693520
v 0.707106 1.000000 0.707106
v 0.693520 0.804910 0.693520
v 0.653281 0.617317 0.653282
v 0.587938 0.444430 0.587938
v 0.500000 0.292893 0.500000
v 0.392847 0.168530 0.392847
v 0.270598 0.076120 0.270598
v 0.137950 0.019215 0.137950
v 0.000000 0.000000 0.000000
v 0.162212 1.980785 0.108386
v 0.318190 1.923880 0.212607
v 0.461940 1.831470 0.308658
v 0.587938 1.707107 0.392848
v 0.691341 1.555570 0.461940
v 0.768177 1.382684 0.513280
v 0.815493 1.195090 0.544895
v 0.831469 1.000000 0.555570
v 0.815493 0.804910 0.544895
v 0.768177 0.617317 0.513280
v 0.691341 0.444430 0.461940
v 0.587938 0.292893 0.392848
v 0.461940 0.168530 0.308658
v 0.318190 0.076120 0.212607
v 0.162212 0.019215 0.108386
v 0.180240 1.980785 0.074658
v 0.353553 1.923880 0.146447
v 0.513280 1.831470 0.212607
v 0.653281 1.707107 0.270598
v 0.768177 1.555570 0.318189
v 0.853553 1.382684 0.353553
v 0.906127 1.195090 0.375330
v 0.923879 1.000000 0.382683
v 0.906127 0.804910 0.375330
v 0.853553 0.617317 0.353553
v 0.768177 0.444430 0.318189
v 0.653281 0.292893 0.270598
v 0.513280 0.168530 0.212607
v 0.353553 0.076120 0.146447
v 0.180240 0.019215 0.074658
v 0.191342 1.980785 0.038060
v 0.375330 1.923880 0.074658
v 0.544895 1.831470 0.108386
v 0.693520 1.707107 0.137950
v 0.815493 1.555570 0.162211
v 0.906127 1.382684 0.180240
v 0.961939 1.195090 0.191341
v 0.980784 1.000000 0.195090
v 0.961939 0.804910 0.191341
v 0.906127 0.617317 0.180240
v 0.815493 0.444430 0.162211
v 0.693520 0.292893 0.137950
v 0.544895 0.168530 0.108386
v 0.375330 0.076120 0.074658
v 0.191342 0.019215 0.038060
v 0.195090 1.980785 -0.000000
v 0.382683 1.923880 -0.000000
v 0.555570 1.831470 -0.000000
v 0.707107 1.707107 -0.000000
v 0.831469 1.555570 -0.000000
v 0.923879 1.382684 -0.000000
v 0.980785 1.195090 -0.000000
v 0.999999 1.000000 -0.000000
v 0.980785 0.804910 -0.000000
v 0.923879 0.617317 -0.000000
v 0.831469 0.444430 -0.000000
v 0.707107 0.292893 -0.000000
v 0.555570 0.168530 -0.000000
v 0.382683 0.076120 -0.000000
v 0.195090 0.019215 -0.000000
v 0.191342 1.980785 -0.038060
v 0.375330 1.923880 -0.074658
v 0.544895 1.831470 -0.108386
v 0.693520 1.707107 -0.137950
v 0.815493 1.555570 -0.162212
v 0.906127 1.382684 -0.180240
v 0.961939 1.195090 -0.191342
v 0.980784 1.000000 -0.195091
v 0.961939 0.804910 -0.191342
v 0.906127 0.617317 -0.180240
v 0.815493 0.444430 -0.162212
v 0.693520 0.292893 -0.137950
v 0.544895 0.168530 -0.108386
v 0.375330 0.076120 -0.074658
v 0.191342 0.019215 -0.038060
v 0.180240 1.980785 -0.074658
v 0.353553 1.923880 -0.146447
v 0.513279 1.831470 -0.212608
v 0.653281 1.707107 -0.270598
v 0.768177 1.555570 -0.318190
v 0.853553 1.382684 -0.353553
v 0.906127 1.195090 -0.375330
v 0.923878 1.000000 -0.382684
v 0.906127 0.804910 -0.375330
v 0.853553 0.617317 -0.353553
v 0.768177 0.444430 -0.318190
v 0.653281 0.292893 -0.270598
v 0.513279 0.168530 -0.212608
v 0.353553 0.076120 -0.146447
v 0.180240 0.019215 -0.074658
v 0.162212 1.980785 -0.108386
v 0.318189 1.923880 -0.212608
v 0.461939 1.831470 -0.308658
v 0.587938 1.707107 -0.392848
v 0.691341 1.555570 -0.461940
v 0.768177 1.382684 -0.513280
v 0.815493 1.195090 -0.544895
v 0.831468 1.000000 -0.555570
v 0.815493 0.804910 -0.544895
v 0.768177 0.617317 -0.513280
v 0.691341 0.444430 -0.461940
v 0.587938 0.292893 -0.392848
v 0.461939 0.168530 -0.308658
v 0.318189 0.076120 -0.212608
v 0.162212 0.019215 -0.108386
v 0.137950 1.980785 -0.137950
v 0.270598 1.923880 -0.270598
v 0.392847 1.831470 -0.392847
v 0.500000 1.707107 -0.500000
v 0.587937 1.555570 -0.587938
v 0.653281 1.382684 -0.653281
v 0.693519 1.195090 -0.693520
v 0.707106 1.000000 -0.707107
v 0.693519 0.804910 -0.693520
v 0.653281 0.617317 -0.653281
v 0.587937 0.444430 -0.587938
v 0.500000 0.292893 -0.500000
v 0.392847 0.168530 -0.392847
v 0.270598 0.076120 -0.270598
v 0.137950 0.019215 -0.137950
v 0.108386 1.980785 -0.162212
v 0.212607 1.923880 -0.318190
v 0.308658 1.831470 -0.461940
v 0.392847 1.707107 -0.587938
v 0.461939 1.555570 -0.691342
v 0.513280 1.382684 -0.768178
v 0.544895 1.195090 -0.815493
v 0.555569 1.000000 -0.831469
v 0.544895 0.804910 -0.815493
v 0.513280 0.617317 -0.768178
v 0.461939 0.444430 -0.691342
v 0.392847 0.292893 -0.587938
v 0.308658 0.168530 -0.461940
v 0.212607 0.076120 -0.318190
v 0.108386 0.019215 -0.162212
v 0.074658 1.980785 -0.180240
v 0.146446 1.923880 -0.353553
v 0.212607 1.831470 -0.513280
v 0.270598 1.707107 -0.653282
v 0.318189 1.555570 -0.768178
v 0.353553 1.382684 -0.853553
v 0.375330 1.195090 -0.906127
v 0.382683 1.000000 -0.923879
v 0.375330 0.804910 -0.906127
v 0.353553 0.617317 -0.853553
v 0.318189 0.444430 -0.768178
v 0.270598 0.292893 -0.653282
v 0.212607 0.168530 -0.513280
v 0.146446 0.076120 -0.353553
v 0.074658 0.019215 -0.180240
v 0.038060 1.980785 -0.191342
v 0.074658 1.923880 -0.375330
v 0.108386 1.831470 -0.544895
v 0.137950 1.707107 -0.693520
v 0.162211 1.555570 -0.815493
v 0.180240 1.382684 -0.906127
v 0.191341 1.195090 -0.961940
v 0.195090 1.000000 -0.980785
v 0.191341 0.804910 -0.961940
v 0.180240 0.617317 -0.906127
v 0.162211 0.444430 -0.815493
v 0.137950 0.292893 -0.693520
v 0.108386 0.168530 -0.544895
v 0.074658 0.076120 -0.375330
v 0.038060 0.019215 -0.191342
v -0.000000 1.980785 -0.195090
v -0.000000 1.923880 -0.382683
v -0.000000 1.707107 -0.707107
v -0.000000 1.382684 -0.923879
v -0.000000 0.617317 -0.923879
v -0.000000 0.292893 -0.707107
v -0.000000 0.168530 -0.555570
v -0.000000 0.076120 -0.382683
v -0.000000 0.019215 -0.195090
vn 0.0624 0.7715 0.6332
vn 0.0865 -0.4696 0.8786
vn 0.0464 0.8810 0.4709
vn 0.0938 -0.2890 0.9527
vn 0.0286 0.9565 0.2902
vn 0.0975 -0.0975 0.9904
vn 0.0097 -0.9951 0.0980
vn 0.0097 0.9951 0.0980
vn 0.0975 0.0975 0.9904
vn 0.0286 -0.9565 0.2902
vn 0.0938 0.2890 0.9527
vn 0.0464 -0.8810 0.4709
vn 0.0865 0.4696 0.8786
vn 0.0624 -0.7715 0.6332
vn 0.0759 0.6326 0.7708
vn 0.0759 -0.6326 0.7708
vn 0.1847 -0.7715 0.6088
vn 0.2248 0.6326 0.7412
vn 0.2248 -0.6326 0.7412
vn 0.1847 0.7715 0.6088
vn 0.2563 -0.4696 0.8448
vn 0.1374 0.8810 0.4528
vn 0.2779 -0.2890 0.9161
vn 0.0846 0.9565 0.2790
vn 0.2889 -0.0976 0.9524
vn 0.0286 -0.9951 0.0942
vn 0.0286 0.9951 0.0942
vn 0.2889 0.0976 0.9524
vn 0.0846 -0.9565 0.2790
vn 0.2779 0.2890 0.9161
vn 0.1374 -0.8810 0.4528
vn 0.2563 0.4696 0.8448
vn 0.4691 -0.0975 0.8777
vn 0.0464 -0.9951 0.0869
vn 0.0464 0.9951 0.0869
vn 0.4691 0.0975 0.8777
vn 0.1374 -0.9565 0.2571
vn 0.4513 0.2890 0.8443
vn 0.2230 -0.8810 0.4173
vn 0.4162 0.4696 0.7786
vn 0.2999 -0.7715 0.5611
vn 0.3651 0.6326 0.6831
vn 0.3651 -0.6326 0.6831
vn 0.2999 0.7715 0.5611
vn 0.4162 -0.4696 0.7786
vn 0.2230 0.8810 0.4173
vn 0.4513 -0.2890 0.8443
vn 0.1374 0.9565 0.2571
vn 0.4913 0.6326 0.5987
vn 0.4913 -0.6326 0.5987
vn 0.4036 0.7715 0.4918
vn 0.5601 -0.4696 0.6825
vn 0.3002 0.8810 0.3658
vn 0.6073 -0.2890 0.7400
vn 0.1850 0.9565 0.2254
vn 0.6314 -0.0975 0.7693
vn 0.0625 -0.9951 0.0761
vn 0.0625 0.9951 0.0761
vn 0.6314 0.0975 0.7693
vn 0.1850 -0.9565 0.2254
vn 0.6073 0.2890 0.7400
vn 0.3002 -0.8810 0.3658
vn 0.5601 0.4696 0.6825
vn 0.4036 -0.7715 0.4918
vn 0.0761 0.9951 0.0625
vn 0.7693 0.0975 0.6314
vn 0.2254 -0.9565 0.1850
vn 0.7400 0.2890 0.6073
vn 0.3658 -0.8810 0.3002
vn 0.6825 0.4696 0.5601
vn 0.4918 -0.7715 0.4036
vn 0.5987 0.6326 0.4913
vn 0.5987 -0.6326 0.4913
vn 0.4918 0.7715 0.4036
vn 0.6825 -0.4696 0.5601
vn 0.3658 0.8810 0.3002
vn 0.7400 -0.2890 0.6073
vn 0.2254 0.9565 0.1850
vn 0.7693 -0.0975 0.6314
vn 0.0761 -0.9951 0.0625
vn 0.5611 0.7715 0.2999
vn 0.7786 -0.4696 0.4162
vn 0.4173 0.8810 0.2230
vn 0.8443 -0.2890 0.4513
vn 0.2571 0.9565 0.1374
vn 0.8777 -0.0975 0.4691
vn 0.0869 -0.9951 0.0464
vn 0.0869 0.9951 0.0464
vn 0.8777 0.0975 0.4691
vn 0.2571 -0.9565 0.1374
vn 0.8443 0.2890 0.4513
vn 0.4173 -0.8810 0.2230
vn 0.7786 0.4696 0.4162
vn 0.5611 -0.7715 0.2999
vn 0.6831 0.6326 0.3651
vn 0.6831 -0.6326 0.3651
vn 0.2790 -0.9565 0.0846
vn 0.9161 0.2890 0.2779
vn 0.4528 -0.8810 0.1374
vn 0.8448 0.4696 0.2563
vn 0.6088 -0.7715 0.1847
vn 0.7412 0.6326 0.2248
vn 0.7412 -0.6326 0.2248
vn 0.6088 0.7715 0.1847
vn 0.8448 -0.4696 0.2563
vn 0.4528 0.8810 0.1374
vn 0.9161 -0.2890 0.2779
vn 0.2790 0.9565 0.0846
vn 0.9524 -0.0975 0.2889
vn 0.0942 -0.9951 0.0286
vn 0.0942 0.9951 0.0286
vn 0.9524 0.0975 0.2889
vn 0.8786 -0.4696 0.0865
vn 0.4709 0.8810 0.0464
vn 0.9527 -0.2890 0.0938
vn 0.2902 0.9565 0.0286
vn 0.9904 -0.0975 0.0975
vn 0.0980 -0.9951 0.0097
vn 0.0980 0.9951 0.0097
vn 0.9904 0.0975 0.0975
vn 0.2902 -0.9565 0.0286
vn 0.9527 0.2890 0.0938
vn 0.4709 -0.8810 0.0464
vn 0.8786 0.4696 0.0865
vn 0.6332 -0.7715 0.0624
vn 0.7708 0.6326 0.0759
vn 0.7708 -0.6326 0.0759
vn 0.6332 0.7715 0.0624
vn 0.9527 0.2890 -0.0938
vn 0.4709 -0.8810 -0.0464
vn 0.8786 0.4696 -0.0865
vn 0.6332 -0.7715 -0.0624
vn 0.7708 0.6326 -0.0759
vn 0.7708 -0.6326 -0.0759
vn 0.6332 0.7715 -0.0624
vn 0.8786 -0.4696 -0.0865
vn 0.4709 0.8810 -0.0464
vn 0.9527 -0.2890 -0.0938
vn 0.2902 0.9565 -0.0286
vn 0.9904 -0.0975 -0.0976
vn 0.0980 -0.9951 -0.0097
vn 0.0980 0.9951 -0.0097
vn 0.9904 0.0975 -0.0976
vn 0.2902 -0.9565 -0.0286
vn 0.4528 0.8810 -0.1374
vn 0.9161 -0.2890 -0.2779
vn 0.2790 0.9565 -0.0846
vn 0.9524 -0.0975 -0.2889
vn 0.0942 -0.9951 -0.0286
vn 0.0942 0.9951 -0.0286
vn 0.9524 0.0975 -0.2889
vn 0.2790 -0.9565 -0.0846
vn 0.9161 0.2890 -0.2779
vn 0.4528 -0.8810 -0.1374
vn 0.8448 0.4696 -0.2563
vn 0.6088 -0.7715 -0.1847
vn 0.7412 0.6326 -0.2248
vn 0.7412 -0.6326 -0.2248
vn 0.6088 0.7715 -0.1847
vn 0.8448 -0.4696 -0.2563
vn 0.4173 -0.8810 -0.2230
vn 0.7786 0.4696 -0.4162
vn 0.5611 -0.7715 -0.2999
vn 0.6831 0.6326 -0.3651
vn 0.6831 -0.6326 -0.3651
vn 0.5611 0.7715 -0.2999
vn 0.7786 -0.4696 -0.4162
vn 0.4173 0.8810 -0.2230
vn 0.8443 -0.2890 -0.4513
vn 0.2571 0.9565 -0.1374
vn 0.8777 -0.0975 -0.4691
vn 0.0869 -0.9951 -0.0464
vn 0.0869 0.9951 -0.0464
vn 0.8777 0.0975 -0.4691
vn 0.2571 -0.9565 -0.1374
vn 0.8443 0.2890 -0.4513
vn 0.7400 -0.2890 -0.6073
vn 0.2254 0.9565 -0.1850
vn 0.7693 -0.0975 -0.6314
vn 0.0761 -0.9951 -0.0625
vn 0.0761 0.9951 -0.0625
vn 0.7693 0.0975 -0.6314
vn 0.2254 -0.9565 -0.1850
vn 0.7400 0.2890 -0.6073
vn 0.3658 -0.8810 -0.3002
vn 0.6825 0.4696 -0.5601
vn 0.4918 -0.7715 -0.4036
vn 0.5987 0.6326 -0.4913
vn 0.5987 -0.6326 -0.4913
vn 0.4918 0.7715 -0.4036
vn 0.6825 -0.4696 -0.5601
vn 0.3658 0.8810 -0.3002
vn 0.5601 0.4696 -0.6825
vn 0.4036 -0.7715 -0.4918
vn 0.4913 0.6326 -0.5987
vn 0.4913 -0.6326 -0.5987
vn 0.4036 0.7715 -0.4918
vn 0.5601 -0.4696 -0.6825
vn 0.3002 0.8810 -0.3658
vn 0.6073 -0.2890 -0.7400
vn 0.1850 0.9565 -0.2254
vn 0.6314 -0.0975 -0.7693
vn 0.0625 -0.9951 -0.0761
vn 0.0625 0.9951 -0.0761
vn 0.6314 0.0975 -0.7693
vn 0.1850 -0.9565 -0.2254
vn 0.6073 0.2890 -0.7400
vn 0.3002 -0.8810 -0.3658
vn 0.1374 0.9565 -0.2571
vn 0.4691 -0.0975 -0.8777
vn 0.0464 -0.9951 -0.0869
vn 0.0464 0.9951 -0.0869
vn 0.4691 0.0975 -0.8777
vn 0.1374 -0.9565 -0.2571
vn 0.4513 0.2890 -0.8443
vn 0.2230 -0.8810 -0.4173
vn 0.4162 0.4696 -0.7786
vn 0.2999 -0.7715 -0.5611
vn 0.3651 0.6326 -0.6831
vn 0.3651 -0.6326 -0.6831
vn 0.2999 0.7715 -0.5611
vn 0.4162 -0.4696 -0.7786
vn 0.2230 0.8810 -0.4173
vn 0.4513 -0.2890 -0.8443
vn 0.2248 0.6326 -0.7412
vn 0.2248 -0.6326 -0.7412
vn 0.1847 0.7715 -0.6088
vn 0.2563 -0.4696 -0.8448
vn 0.1374 0.8810 -0.4528
vn 0.2779 -0.2890 -0.9161
vn 0.0846 0.9565 -0.2790
vn 0.2889 -0.0975 -0.9524
vn 0.0286 -0.9951 -0.0942
vn 0.0286 0.9951 -0.0942
vn 0.2889 0.0975 -0.9524
vn 0.0846 -0.9565 -0.2790
vn 0.2779 0.2890 -0.9161
vn 0.1374 -0.8810 -0.4528
vn 0.2563 0.4696 -0.8448
vn 0.1847 -0.7715 -0.6088
vn 0.0097 -0.9951 -0.0980
vn 0.0097 0.9951 -0.0980
vn 0.0975 0.0975 -0.9904
vn 0.0286 -0.9565 -0.2902
vn 0.0938 0.2890 -0.9527
vn 0.0464 -0.8810 -0.4709
vn 0.0865 0.4696 -0.8786
vn 0.0624 -0.7715 -0.6332
vn 0.0759 0.6326 -0.7708
vn 0.0759 -0.6326 -0.7708
vn 0.0624 0.7715 -0.6332
vn 0.0865 -0.4696 -0.8786
vn 0.0464 0.8810 -0.4709
vn 0.0938 -0.2890 -0.9527
vn 0.0286 0.9565 -0.2902
vn 0.0975 -0.0975 -0.9904
vn -0.0759 -0.6326 -0.7708
vn -0.0624 0.7715 -0.6332
vn -0.0865 -0.4696 -0.8786
vn -0.0464 0.8810 -0.4709
vn -0.0938 -0.2890 -0.9527
vn -0.0286 0.9565 -0.2902
vn -0.0976 -0.0975 -0.9904
vn -0.0097 -0.9951 -0.0980
vn -0.0097 0.9951 -0.0980
vn -0.0976 0.0975 -0.9904
vn -0.0286 -0.9565 -0.2902
vn -0.0938 0.2890 -0.9527
vn -0.0464 -0.8810 -0.4709
vn -0.0865 0.4696 -0.8786
vn -0.0624 -0.7715 -0.6332
vn -0.0759 0.6326 -0.7708
vn -0.2889 0.0975 -0.9524
vn -0.0846 -0.9565 -0.2790
vn -0.2779 0.2890 -0.9161
vn -0.1374 -0.8810 -0.4528
vn -0.2563 0.4696 -0.8448
vn -0.1847 -0.7715 -0.6088
vn -0.2248 0.6326 -0.7412
vn -0.2248 -0.6326 -0.7412
vn -0.1847 0.7715 -0.6088
vn -0.2563 -0.4696 -0.8448
vn -0.1374 0.8810 -0.4528
vn -0.2779 -0.2890 -0.9161
vn -0.0846 0.9565 -0.2790
vn -0.2889 -0.0975 -0.9524
vn -0.0286 -0.9951 -0.0942
vn -0.0286 0.9951 -0.0942
vn -0.2999 0.7715 -0.5611
vn -0.4162 -0.4696 -0.7786
vn -0.2230 0.8810 -0.4173
vn -0.4513 -0.2890 -0.8443
vn -0.1374 0.9565 -0.2571
vn -0.4691 -0.0975 -0.8777
vn -0.0464 -0.9951 -0.0869
vn -0.0464 0.9951 -0.0869
vn -0.4691 0.0975 -0.8777
vn -0.1374 -0.9565 -0.2571
vn -0.4513 0.2890 -0.8443
vn -0.2231 -0.8810 -0.4173
vn -0.4162 0.4696 -0.7786
vn -0.2999 -0.7715 -0.5611
vn -0.3651 0.6326 -0.6831
vn -0.3651 -0.6326 -0.6831
vn -0.1850 -0.9565 -0.2254
vn -0.6073 0.2890 -0.7400
vn -0.3002 -0.8810 -0.3658
vn -0.5601 0.4696 -0.6825
vn -0.4036 -0.7715 -0.4918
vn -0.4913 0.6326 -0.5987
vn -0.4913 -0.6326 -0.5987
vn -0.4036 0.7715 -0.4918
vn -0.5601 -0.4696 -0.6825
vn -0.3002 0.8810 -0.3658
vn -0.6073 -0.2890 -0.7400
vn -0.1850 0.9565 -0.2254
vn -0.6314 -0.0975 -0.7693
vn -0.0625 -0.9951 -0.0761
vn -0.0625 0.9951 -0.0761
vn -0.6314 0.0975 -0.7693
vn -0.6825 -0.4696 -0.5601
vn -0.3658 0.8810 -0.3002
vn -0.7400 -0.2890 -0.6073
vn -0.2254 0.9565 -0.1850
vn -0.7693 -0.0975 -0.6314
vn -0.0761 -0.9951 -0.0625
vn -0.0761 0.9951 -0.0625
vn -0.7693 0.0975 -0.6314
vn -0.2254 -0.9565 -0.1850
vn -0.7400 0.2890 -0.6073
vn -0.3658 -0.8810 -0.3002
vn -0.6825 0.4696 -0.5601
vn -0.4918 -0.7715 -0.4036
vn -0.5987 0.6326 -0.4913
vn -0.5987 -0.6326 -0.4913
vn -0.4918 0.7715 -0.4036
vn -0.8443 0.2890 -0.4513
vn -0.4173 -0.8810 -0.2230
vn -0.7786 0.4696 -0.4162
vn -0.5611 -0.7715 -0.2999
vn -0.6831 0.6326 -0.3651
vn -0.6831 -0.6326 -0.3651
vn -0.5611 0.7715 -0.2999
vn -0.7786 -0.4696 -0.4162
vn -0.4173 0.8810 -0.2230
vn -0.8443 -0.2890 -0.4513
vn -0.2571 0.9565 -0.1374
vn -0.8777 -0.0975 -0.4691
vn -0.0869 -0.9951 -0.0464
vn -0.0869 0.9951 -0.0464
vn -0.8777 0.0975 -0.4691
vn -0.2571 -0.9565 -0.1374
vn -0.4528 0.8810 -0.1374
vn -0.9161 -0.2890 -0.2779
vn -0.2790 0.9565 -0.0846
vn -0.9524 -0.0975 -0.2889
vn -0.0942 -0.9951 -0.0286
vn -0.0942 0.9951 -0.0286
vn -0.9524 0.0975 -0.2889
vn -0.2790 -0.9565 -0.0846
vn -0.9161 0.2890 -0.2779
vn -0.4528 -0.8810 -0.1374
vn -0.8448 0.4696 -0.2563
vn -0.6088 -0.7715 -0.1847
vn -0.7412 0.6326 -0.2248
vn -0.7412 -0.6326 -0.2248
vn -0.6088 0.7715 -0.1847
vn -0.8448 -0.4696 -0.2563
vn -0.8786 0.4696 -0.0865
vn -0.6332 -0.7715 -0.0624
vn -0.7708 0.6326 -0.0759
vn -0.7708 -0.6326 -0.0759
vn -0.6332 0.7715 -0.0624
vn -0.8786 -0.4696 -0.0865
vn -0.4709 0.8810 -0.0464
vn -0.9527 -0.2890 -0.0938
vn -0.2902 0.9565 -0.0286
vn -0.9904 -0.0975 -0.0975
vn -0.0980 -0.9951 -0.0097
vn -0.0980 0.9951 -0.0097
vn -0.9904 0.0975 -0.0975
vn -0.2902 -0.9565 -0.0286
vn -0.9527 0.2890 -0.0938
vn -0.4709 -0.8810 -0.0464
vn -0.2902 0.9565 0.0286
vn -0.9904 -0.0975 0.0976
vn -0.0980 -0.9951 0.0097
vn -0.0980 0.9951 0.0097
vn -0.9904 0.0975 0.0976
vn -0.2902 -0.9565 0.0286
vn -0.9527 0.2890 0.0938
vn -0.4709 -0.8810 0.0464
vn -0.8786 0.4696 0.0865
vn -0.6332 -0.7715 0.0624
vn -0.7708 0.6326 0.0759
vn -0.7708 -0.6326 0.0759
vn -0.6332 0.7715 0.0624
vn -0.8786 -0.4696 0.0865
vn -0.4709 0.8810 0.0464
vn -0.9527 -0.2890 0.0938
vn -0.6088 -0.7715 0.1847
vn -0.7412 0.6326 0.2248
vn -0.7412 -0.6326 0.2248
vn -0.6088 0.7715 0.1847
vn -0.8448 -0.4696 0.2563
vn -0.4528 0.8810 0.1374
vn -0.9161 -0.2890 0.2779
vn -0.2790 0.9565 0.0846
vn -0.9524 -0.0975 0.2889
vn -0.0942 -0.9951 0.0286
vn -0.0942 0.9951 0.0286
vn -0.9524 0.0975 0.2889
vn -0.2790 -0.9565 0.0846
vn -0.9161 0.2890 0.2779
vn -0.4528 -0.8810 0.1374
vn -0.8448 0.4696 0.2563
vn -0.8777 -0.0975 0.4691
vn -0.0869 -0.9951 0.0464
vn -0.0869 0.9951 0.0464
vn -0.8777 0.0975 0.4691
vn -0.2571 -0.9565 0.1374
vn -0.8443 0.2890 0.4513
vn -0.4173 -0.8810 0.2231
vn -0.7786 0.4696 0.4162
vn -0.5611 -0.7715 0.2999
vn -0.6831 0.6326 0.3651
vn -0.6831 -0.6326 0.3651
vn -0.5611 0.7715 0.2999
vn -0.7786 -0.4696 0.4162
vn -0.4173 0.8810 0.2231
vn -0.8443 -0.2890 0.4513
vn -0.2571 0.9565 0.1374
vn -0.5987 0.6326 0.4913
vn -0.5987 -0.6326 0.4913
vn -0.4918 0.7715 0.4036
vn -0.6825 -0.4696 0.5601
vn -0.3658 0.8810 0.3002
vn -0.7400 -0.2890 0.6073
vn -0.2254 0.9565 0.1850
vn -0.7693 -0.0975 0.6314
vn -0.0761 -0.9951 0.0625
vn -0.0761 0.9951 0.0625
vn -0.7693 0.0975 0.6314
vn -0.2254 -0.9565 0.1850
vn -0.7400 0.2890 0.6073
vn -0.3658 -0.8810 0.3002
vn -0.6825 0.4696 0.5601
vn -0.4918 -0.7715 0.4036
vn -0.0625 -0.9951 0.0761
vn -0.0625 0.9951 0.0761
vn -0.6314 0.0975 0.7693
vn -0.1850 -0.9565 0.2254
vn -0.6073 0.2890 0.7400
vn -0.3002 -0.8810 0.3658
vn -0.5601 0.4696 0.6825
vn -0.4036 -0.7715 0.4918
vn -0.4913 0.6326 0.5987
vn -0.4913 -0.6326 0.5987
vn -0.4036 0.7715 0.4918
vn -0.5601 -0.4696 0.6825
vn -0.3002 0.8810 0.3658
vn -0.6073 -0.2890 0.7400
vn -0.1850 0.9565 0.2254
vn -0.6314 -0.0975 0.7693
vn -0.3651 -0.6326 0.6831
vn -0.2999 0.7715 0.5611
vn -0.4162 -0.4696 0.7786
vn -0.2230 0.8810 0.4173
vn -0.4513 -0.2890 0.8443
vn -0.1374 0.9565 0.2571
vn -0.4691 -0.0975 0.8777
vn -0.0464 -0.9951 0.0869
vn -0.0464 0.9951 0.0869
vn -0.4691 0.0975 0.8777
vn -0.1374 -0.9565 0.2571
vn -0.4513 0.2890 0.8443
vn -0.2230 -0.8810 0.4173
vn -0.4162 0.4696 0.7786
vn -0.2999 -0.7715 0.5611
vn -0.3651 0.6326 0.6831
vn -0.2889 0.0975 0.9524
vn -0.0846 -0.9565 0.2790
vn -0.2779 0.2890 0.9161
vn -0.1374 -0.8810 0.4528
vn -0.2563 0.4696 0.8448
vn -0.1847 -0.7715 0.6088
vn -0.2248 0.6326 0.7412
vn -0.2248 -0.6326 0.7412
vn -0.1847 0.7715 0.6088
vn -0.2563 -0.4696 0.8448
vn -0.1374 0.8810 0.4528
vn -0.2779 -0.2890 0.9161
vn -0.0846 0.9565 0.2790
vn -0.2889 -0.0975 0.9524
vn -0.0286 -0.9951 0.0942
vn -0.0286 0.9951 0.0942
vn -0.0624 0.7715 0.6332
vn -0.0865 -0.4696 0.8786
vn -0.0464 0.8810 0.4709
vn -0.0938 -0.2890 0.9527
vn -0.0286 0.9565 0.2902
vn -0.0976 -0.0975 0.9904
vn -0.0097 -0.9951 0.0980
vn -0.0097 0.9951 0.0980
vn -0.0976 0.0975 0.9904
vn -0.0286 -0.9565 0.2902
vn -0.0938 0.2890 0.9527
vn -0.0464 -0.8810 0.4709
vn -0.0865 0.4696 0.8786
vn -0.0624 -0.7715 0.6332
vn -0.0759 0.6326 0.7708
vn -0.0759 -0.6326 0.7708
vt 0.750000 0.187500
vt 0.718750 0.187500
vt 0.718750 0.250000
vt 0.750000 0.250000
vt 0.750000 0.625000
vt 0.718750 0.625000
vt 0.718750 0.687500
vt 0.750000 0.687500
vt 0.750000 0.125000
vt 0.718750 0.125000
vt 0.750000 0.562500
vt 0.718750 0.562500
vt 0.750000 0.062500
vt 0.718750 0.062500
vt 0.750000 0.500000
vt 0.718750 0.500000
vt 0.750000 0.937500
vt 0.718750 0.937500
vt 0.734375 1.000000
vt 0.734375 0.000000
vt 0.750000 0.437500
vt 0.718750 0.437500
vt 0.750000 0.875000
vt 0.718750 0.875000
vt 0.750000 0.375000
vt 0.718750 0.375000
vt 0.750000 0.812500
vt 0.718750 0.812500
vt 0.750000 0.312500
vt 0.718750 0.312500
vt 0.750000 0.750000
vt 0.718750 0.750000
vt 0.687500 0.750000
vt 0.687500 0.812500
vt 0.687500 0.250000
vt 0.687500 0.312500
vt 0.687500 0.687500
vt 0.687500 0.187500
vt 0.687500 0.625000
vt 0.687500 0.125000
vt 0.687500 0.562500
vt 0.687500 0.062500
vt 0.687500 0.500000
vt 0.687500 0.937500
vt 0.703125 1.000000
vt 0.703125 0.000000
vt 0.687500 0.437500
vt 0.687500 0.875000
vt 0.687500 0.375000
vt 0.656250 0.500000
vt 0.656250 0.562500
vt 0.656250 0.937500
vt 0.671875 1.000000
vt 0.671875 0.000000
vt 0.656250 0.062500
vt 0.656250 0.437500
vt 0.656250 0.875000
vt 0.656250 0.375000
vt 0.656250 0.812500
vt 0.656250 0.312500
vt 0.656250 0.750000
vt 0.656250 0.250000
vt 0.656250 0.687500
vt 0.656250 0.187500
vt 0.656250 0.625000
vt 0.656250 0.125000
vt 0.625000 0.250000
vt 0.625000 0.312500
vt 0.625000 0.687500
vt 0.625000 0.750000
vt 0.625000 0.187500
vt 0.625000 0.625000
vt 0.625000 0.125000
vt 0.625000 0.562500
vt 0.625000 0.062500
vt 0.625000 0.500000
vt 0.625000 0.937500
vt 0.640625 1.000000
vt 0.640625 0.000000
vt 0.625000 0.437500
vt 0.625000 0.875000
vt 0.625000 0.375000
vt 0.625000 0.812500
vt 0.609375 0.000000
vt 0.593750 0.062500
vt 0.593750 0.437500
vt 0.593750 0.500000
vt 0.593750 0.875000
vt 0.593750 0.937500
vt 0.593750 0.375000
vt 0.593750 0.812500
vt 0.593750 0.312500
vt 0.593750 0.750000
vt 0.593750 0.250000
vt 0.593750 0.687500
vt 0.593750 0.187500
vt 0.593750 0.625000
vt 0.593750 0.125000
vt 0.593750 0.562500
vt 0.609375 1.000000
vt 0.562500 0.187500
vt 0.562500 0.250000
vt 0.562500 0.625000
vt 0.562500 0.687500
vt 0.562500 0.125000
vt 0.562500 0.562500
vt 0.562500 0.062500
vt 0.562500 0.500000
vt 0.562500 0.937500
vt 0.578125 1.000000
vt 0.578125 0.000000
vt 0.562500 0.437500
vt 0.562500 0.875000
vt 0.562500 0.375000
vt 0.562500 0.812500
vt 0.562500 0.312500
vt 0.562500 0.750000
vt 0.531250 0.875000
vt 0.531250 0.937500
vt 0.531250 0.375000
vt 0.531250 0.437500
vt 0.531250 0.812500
vt 0.531250 0.312500
vt 0.531250 0.750000
vt 0.531250 0.250000
vt 0.531250 0.687500
vt 0.531250 0.187500
vt 0.531250 0.625000
vt 0.531250 0.125000
vt 0.531250 0.562500
vt 0.531250 0.062500
vt 0.531250 0.500000
vt 0.546875 1.000000
vt 0.546875 0.000000
vt 0.500000 0.625000
vt 0.500000 0.687500
vt 0.500000 0.125000
vt 0.500000 0.187500
vt 0.500000 0.562500
vt 0.500000 0.062500
vt 0.500000 0.500000
vt 0.500000 0.937500
vt 0.515625 1.000000
vt 0.515625 0.000000
vt 0.500000 0.437500
vt 0.500000 0.875000
vt 0.500000 0.375000
vt 0.500000 0.812500
vt 0.500000 0.312500
vt 0.500000 0.750000
vt 0.500000 0.250000
vt 0.468750 0.375000
vt 0.468750 0.437500
vt 0.468750 0.812500
vt 0.468750 0.875000
vt 0.468750 0.312500
vt 0.468750 0.750000
vt 0.468750 0.250000
vt 0.468750 0.687500
vt 0.468750 0.187500
vt 0.468750 0.625000
vt 0.468750 0.125000
vt 0.468750 0.562500
vt 0.468750 0.062500
vt 0.468750 0.500000
vt 0.468750 0.937500
vt 0.484375 1.000000
vt 0.484375 0.000000
vt 0.437500 0.125000
vt 0.437500 0.187500
vt 0.437500 0.562500
vt 0.437500 0.625000
vt 0.437500 0.062500
vt 0.437500 0.500000
vt 0.437500 0.937500
vt 0.453125 1.000000
vt 0.453125 0.000000
vt 0.437500 0.437500
vt 0.437500 0.875000
vt 0.437500 0.375000
vt 0.437500 0.812500
vt 0.437500 0.312500
vt 0.437500 0.750000
vt 0.437500 0.250000
vt 0.437500 0.687500
vt 0.406250 0.812500
vt 0.406250 0.875000
vt 0.406250 0.312500
vt 0.406250 0.375000
vt 0.406250 0.750000
vt 0.406250 0.250000
vt 0.406250 0.687500
vt 0.406250 0.187500
vt 0.406250 0.625000
vt 0.406250 0.125000
vt 0.406250 0.562500
vt 0.406250 0.062500
vt 0.406250 0.500000
vt 0.406250 0.937500
vt 0.421875 1.000000
vt 0.421875 0.000000
vt 0.406250 0.437500
vt 0.375000 0.562500
vt 0.375000 0.625000
vt 0.375000 0.062500
vt 0.375000 0.125000
vt 0.375000 0.500000
vt 0.375000 0.937500
vt 0.390625 1.000000
vt 0.390625 0.000000
vt 0.375000 0.437500
vt 0.375000 0.875000
vt 0.375000 0.375000
vt 0.375000 0.812500
vt 0.375000 0.312500
vt 0.375000 0.750000
vt 0.375000 0.250000
vt 0.375000 0.687500
vt 0.375000 0.187500
vt 0.343750 0.312500
vt 0.343750 0.375000
vt 0.343750 0.750000
vt 0.343750 0.812500
vt 0.343750 0.250000
vt 0.343750 0.687500
vt 0.343750 0.187500
vt 0.343750 0.625000
vt 0.343750 0.125000
vt 0.343750 0.562500
vt 0.343750 0.062500
vt 0.343750 0.500000
vt 0.343750 0.937500
vt 0.359375 1.000000
vt 0.359375 0.000000
vt 0.343750 0.437500
vt 0.343750 0.875000
vt 0.312500 0.062500
vt 0.312500 0.125000
vt 0.312500 0.500000
vt 0.312500 0.562500
vt 0.312500 0.937500
vt 0.328125 1.000000
vt 0.328125 0.000000
vt 0.312500 0.437500
vt 0.312500 0.875000
vt 0.312500 0.375000
vt 0.312500 0.812500
vt 0.312500 0.312500
vt 0.312500 0.750000
vt 0.312500 0.250000
vt 0.312500 0.687500
vt 0.312500 0.187500
vt 0.312500 0.625000
vt 0.281250 0.250000
vt 0.281250 0.312500
vt 0.281250 0.687500
vt 0.281250 0.750000
vt 0.281250 0.187500
vt 0.281250 0.625000
vt 0.281250 0.125000
vt 0.281250 0.562500
vt 0.281250 0.062500
vt 0.281250 0.500000
vt 0.281250 0.937500
vt 0.296875 1.000000
vt 0.296875 0.000000
vt 0.281250 0.437500
vt 0.281250 0.875000
vt 0.281250 0.375000
vt 0.281250 0.812500
vt 0.250000 0.937500
vt 0.265625 1.000000
vt 0.265625 0.000000
vt 0.250000 0.062500
vt 0.250000 0.437500
vt 0.250000 0.500000
vt 0.250000 0.875000
vt 0.250000 0.375000
vt 0.250000 0.812500
vt 0.250000 0.312500
vt 0.250000 0.750000
vt 0.250000 0.250000
vt 0.250000 0.687500
vt 0.250000 0.187500
vt 0.250000 0.625000
vt 0.250000 0.125000
vt 0.250000 0.562500
vt 0.218750 0.687500
vt 0.218750 0.750000
vt 0.218750 0.187500
vt 0.218750 0.250000
vt 0.218750 0.625000
vt 0.218750 0.125000
vt 0.218750 0.562500
vt 0.218750 0.062500
vt 0.218750 0.500000
vt 0.218750 0.937500
vt 0.234375 1.000000
vt 0.234375 0.000000
vt 0.218750 0.437500
vt 0.218750 0.875000
vt 0.218750 0.375000
vt 0.218750 0.812500
vt 0.218750 0.312500
vt 0.187500 0.437500
vt 0.187500 0.500000
vt 0.187500 0.875000
vt 0.187500 0.937500
vt 0.187500 0.375000
vt 0.187500 0.812500
vt 0.187500 0.312500
vt 0.187500 0.750000
vt 0.187500 0.250000
vt 0.187500 0.687500
vt 0.187500 0.187500
vt 0.187500 0.625000
vt 0.187500 0.125000
vt 0.187500 0.562500
vt 0.187500 0.062500
vt 0.203125 1.000000
vt 0.203125 0.000000
vt 0.156250 0.187500
vt 0.156250 0.250000
vt 0.156250 0.625000
vt 0.156250 0.687500
vt 0.156250 0.125000
vt 0.156250 0.562500
vt 0.156250 0.062500
vt 0.156250 0.500000
vt 0.156250 0.937500
vt 0.171875 1.000000
vt 0.171875 0.000000
vt 0.156250 0.437500
vt 0.156250 0.875000
vt 0.156250 0.375000
vt 0.156250 0.812500
vt 0.156250 0.312500
vt 0.156250 0.750000
vt 0.125000 0.875000
vt 0.125000 0.937500
vt 0.125000 0.375000
vt 0.125000 0.437500
vt 0.125000 0.812500
vt 0.125000 0.312500
vt 0.125000 0.750000
vt 0.125000 0.250000
vt 0.125000 0.687500
vt 0.125000 0.187500
vt 0.125000 0.625000
vt 0.125000 0.125000
vt 0.125000 0.562500
vt 0.125000 0.062500
vt 0.125000 0.500000
vt 0.140625 1.000000
vt 0.140625 0.000000
vt 0.093750 0.625000
vt 0.093750 0.687500
vt 0.093750 0.125000
vt 0.093750 0.187500
vt 0.093750 0.562500
vt 0.093750 0.062500
vt 0.093750 0.500000
vt 0.093750 0.937500
vt 0.109375 1.000000
vt 0.109375 0.000000
vt 0.093750 0.437500
vt 0.093750 0.875000
vt 0.093750 0.375000
vt 0.093750 0.812500
vt 0.093750 0.312500
vt 0.093750 0.750000
vt 0.093750 0.250000
vt 0.062500 0.375000
vt 0.062500 0.437500
vt 0.062500 0.812500
vt 0.062500 0.875000
vt 0.062500 0.312500
vt 0.062500 0.750000
vt 0.062500 0.250000
vt 0.062500 0.687500
vt 0.062500 0.187500
vt 0.062500 0.625000
vt 0.062500 0.125000
vt 0.062500 0.562500
vt 0.062500 0.062500
vt 0.062500 0.500000
vt 0.062500 0.937500
vt 0.078125 1.000000
vt 0.078125 0.000000
vt 0.031250 0.125000
vt 0.031250 0.187500
vt 0.031250 0.562500
vt 0.031250 0.625000
vt 0.031250 0.062500
vt 0.031250 0.500000
vt 0.031250 0.937500
vt 0.046875 1.000000
vt 0.046875 0.000000
vt 0.031250 0.437500
vt 0.031250 0.875000
vt 0.031250 0.375000
vt 0.031250 0.812500
vt 0.031250 0.312500
vt 0.031250 0.750000
vt 0.031250 0.250000
vt 0.031250 0.687500
vt 0.000000 0.312500
vt 0.000000 0.375000
vt 0.000000 0.750000
vt 0.000000 0.812500
vt 0.000000 0.250000
vt 0.000000 0.687500
vt 0.000000 0.187500
vt 0.000000 0.625000
vt 0.000000 0.125000
vt 0.000000 0.562500
vt 0.000000 0.062500
vt 0.000000 0.500000
vt 0.000000 0.937500
vt 0.015625 1.000000
vt 0.015625 0.000000
vt 0.000000 0.437500
vt 0.000000 0.875000
vt 1.000000 0.062500
vt 0.968750 0.062500
vt 0.968750 0.125000
vt 1.000000 0.125000
vt 1.000000 0.500000
vt 0.968750 0.500000
vt 0.968750 0.562500
vt 1.000000 0.562500
vt 1.000000 0.937500
vt 0.968750 0.937500
vt 0.984375 1.000000
vt 0.984375 0.000000
vt 1.000000 0.437500
vt 0.968750 0.437500
vt 1.000000 0.875000
vt 0.968750 0.875000
vt 1.000000 0.375000
vt 0.968750 0.375000
vt 1.000000 0.812500
vt 0.968750 0.812500
vt 1.000000 0.312500
vt 0.968750 0.312500
vt 1.000000 0.750000
vt 0.968750 0.750000
vt 1.000000 0.250000
vt 0.968750 0.250000
vt 1.000000 0.687500
vt 0.968750 0.687500
vt 1.000000 0.187500
vt 0.968750 0.187500
vt 1.000000 0.625000
vt 0.968750 0.625000
vt 0.937500 0.750000
vt 0.937500 0.812500
vt 0.937500 0.250000
vt 0.937500 0.312500
vt 0.937500 0.687500
vt 0.937500 0.187500
vt 0.937500 0.625000
vt 0.937500 0.125000
vt 0.937500 0.562500
vt 0.937500 0.062500
vt 0.937500 0.500000
vt 0.937500 0.937500
vt 0.953125 1.000000
vt 0.953125 0.000000
vt 0.937500 0.437500
vt 0.937500 0.875000
vt 0.937500 0.375000
vt 0.906250 0.500000
vt 0.906250 0.562500
vt 0.906250 0.937500
vt 0.921875 1.000000
vt 0.921875 0.000000
vt 0.906250 0.062500
vt 0.906250 0.437500
vt 0.906250 0.875000
vt 0.906250 0.375000
vt 0.906250 0.812500
vt 0.906250 0.312500
vt 0.906250 0.750000
vt 0.906250 0.250000
vt 0.906250 0.687500
vt 0.906250 0.187500
vt 0.906250 0.625000
vt 0.906250 0.125000
vt 0.875000 0.250000
vt 0.875000 0.312500
vt 0.875000 0.687500
vt 0.875000 0.750000
vt 0.875000 0.187500
vt 0.875000 0.625000
vt 0.875000 0.125000
vt 0.875000 0.562500
vt 0.875000 0.062500
vt 0.875000 0.500000
vt 0.875000 0.937500
vt 0.890625 1.000000
vt 0.890625 0.000000
vt 0.875000 0.437500
vt 0.875000 0.875000
vt 0.875000 0.375000
vt 0.875000 0.812500
vt 0.843750 0.937500
vt 0.859375 1.000000
vt 0.859375 0.000000
vt 0.843750 0.062500
vt 0.843750 0.437500
vt 0.843750 0.500000
vt 0.843750 0.875000
vt 0.843750 0.375000
vt 0.843750 0.812500
vt 0.843750 0.312500
vt 0.843750 0.750000
vt 0.843750 0.250000
vt 0.843750 0.687500
vt 0.843750 0.187500
vt 0.843750 0.625000
vt 0.843750 0.125000
vt 0.843750 0.562500
vt 0.812500 0.687500
vt 0.812500 0.750000
vt 0.812500 0.187500
vt 0.812500 0.250000
vt 0.812500 0.625000
vt 0.812500 0.125000
vt 0.812500 0.562500
vt 0.812500 0.062500
vt 0.812500 0.500000
vt 0.812500 0.937500
vt 0.828125 1.000000
vt 0.828125 0.000000
vt 0.812500 0.437500
vt 0.812500 0.875000
vt 0.812500 0.375000
vt 0.812500 0.812500
vt 0.812500 0.312500
vt 0.781250 0.437500
vt 0.781250 0.500000
vt 0.781250 0.875000
vt 0.781250 0.937500
vt 0.781250 0.375000
vt 0.781250 0.812500
vt 0.781250 0.312500
vt 0.781250 0.750000
vt 0.781250 0.250000
vt 0.781250 0.687500
vt 0.781250 0.187500
vt 0.781250 0.625000
vt 0.781250 0.125000
vt 0.781250 0.562500
vt 0.781250 0.062500
vt 0.796875 1.000000
vt 0.796875 0.000000
vt 0.765625 1.000000
vt 0.765625 0.000000
s 0
usemtl マテリアル
f 480/1/1 479/4/1 18/3/1 19/2/1
f 477/5/2 2/8/2 11/7/2 12/6/2
f 481/9/3 480/1/3 19/2/3 20/10/3
f 3/11/4 477/5/4 12/6/4 13/12/4
f 482/13/5 481/9/5 20/10/5 21/14/5
f 4/15/6 3/11/6 13/12/6 14/16/6
f 474/17/7 82/19/7 7/18/7
f 308/20/8 482/13/8 21/14/8
f 5/21/9 4/15/9 14/16/9 15/22/9
f 475/23/10 474/17/10 7/18/10 8/24/10
f 478/25/11 5/21/11 15/22/11 16/26/11
f 1/27/12 475/23/12 8/24/12 9/28/12
f 6/29/13 478/25/13 16/26/13 17/30/13
f 476/31/14 1/27/14 9/28/14 10/32/14
f 479/4/15 6/29/15 17/30/15 18/3/15
f 2/8/16 476/31/16 10/32/16 11/7/16
f 10/32/17 9/28/17 24/34/17 25/33/17
f 18/3/18 17/30/18 32/36/18 33/35/18
f 11/7/19 10/32/19 25/33/19 26/37/19
f 19/2/20 18/3/20 33/35/20 34/38/20
f 12/6/21 11/7/21 26/37/21 27/39/21
f 20/10/22 19/2/22 34/38/22 35/40/22
f 13/12/23 12/6/23 27/39/23 28/41/23
f 21/14/24 20/10/24 35/40/24 36/42/24
f 14/16/25 13/12/25 28/41/25 29/43/25
f 7/18/26 82/45/26 22/44/26
f 308/46/27 21/14/27 36/42/27
f 15/22/28 14/16/28 29/43/28 30/47/28
f 8/24/29 7/18/29 22/44/29 23/48/29
f 16/26/30 15/22/30 30/47/30 31/49/30
f 9/28/31 8/24/31 23/48/31 24/34/31
f 17/30/32 16/26/32 31/49/32 32/36/32
f 29/43/33 28/41/33 43/51/33 44/50/33
f 22/44/34 82/53/34 37/52/34
f 308/54/35 36/42/35 51/55/35
f 30/47/36 29/43/36 44/50/36 45/56/36
f 23/48/37 22/44/37 37/52/37 38/57/37
f 31/49/38 30/47/38 45/56/38 46/58/38
f 24/34/39 23/48/39 38/57/39 39/59/39
f 32/36/40 31/49/40 46/58/40 47/60/40
f 25/33/41 24/34/41 39/59/41 40/61/41
f 33/35/42 32/36/42 47/60/42 48/62/42
f 26/37/43 25/33/43 40/61/43 41/63/43
f 34/38/44 33/35/44 48/62/44 49/64/44
f 27/39/45 26/37/45 41/63/45 42/65/45
f 35/40/46 34/38/46 49/64/46 50/66/46
f 28/41/47 27/39/47 42/65/47 43/51/47
f 36/42/48 35/40/48 50/66/48 51/55/48
f 48/62/49 47/60/49 62/68/49 63/67/49
f 41/63/50 40/61/50 55/70/50 56/69/50
f 49/64/51 48/62/51 63/67/51 64/71/51
f 42/65/52 41/63/52 56/69/52 57/72/52
f 50/66/53 49/64/53 64/71/53 65/73/53
f 43/51/54 42/65/54 57/72/54 58/74/54
f 51/55/55 50/66/55 65/73/55 66/75/55
f 44/50/56 43/51/56 58/74/56 59/76/56
f 37/52/57 82/78/57 52/77/57
f 308/79/58 51/55/58 66/75/58
f 45/56/59 44/50/59 59/76/59 60/80/59
f 38/57/60 37/52/60 52/77/60 53/81/60
f 46/58/61 45/56/61 60/80/61 61/82/61
f 39/59/62 38/57/62 53/81/62 54/83/62
f 47/60/63 46/58/63 61/82/63 62/68/63
f 40/61/64 39/59/64 54/83/64 55/70/64
f 308/84/65 66/75/65 81/85/65
f 60/80/66 59/76/66 74/87/66 75/86/66
f 53/81/67 52/77/67 67/89/67 68/88/67
f 61/82/68 60/80/68 75/86/68 76/90/68
f 54/83/69 53/81/69 68/88/69 69/91/69
f 62/68/70 61/82/70 76/90/70 77/92/70
f 55/70/71 54/83/71 69/91/71 70/93/71
f 63/67/72 62/68/72 77/92/72 78/94/72
f 56/69/73 55/70/73 70/93/73 71/95/73
f 64/71/74 63/67/74 78/94/74 79/96/74
f 57/72/75 56/69/75 71/95/75 72/97/75
f 65/73/76 64/71/76 79/96/76 80/98/76
f 58/74/77 57/72/77 72/97/77 73/99/77
f 66/75/78 65/73/78 80/98/78 81/85/78
f 59/76/79 58/74/79 73/99/79 74/87/79
f 52/77/80 82/100/80 67/89/80
f 79/96/81 78/94/81 94/102/81 95/101/81
f 72/97/82 71/95/82 87/104/82 88/103/82
f 80/98/83 79/96/83 95/101/83 96/105/83
f 73/99/84 72/97/84 88/103/84 89/106/84
f 81/85/85 80/98/85 96/105/85 97/107/85
f 74/87/86 73/99/86 89/106/86 90/108/86
f 67/89/87 82/110/87 83/109/87
f 308/111/88 81/85/88 97/107/88
f 75/86/89 74/87/89 90/108/89 91/112/89
f 68/88/90 67/89/90 83/109/90 84/113/90
f 76/90/91 75/86/91 91/112/91 92/114/91
f 69/91/92 68/88/92 84/113/92 85/115/92
f 77/92/93 76/90/93 92/114/93 93/116/93
f 70/93/94 69/91/94 85/115/94 86/117/94
f 78/94/95 77/92/95 93/116/95 94/102/95
f 71/95/96 70/93/96 86/117/96 87/104/96
f 84/113/97 83/109/97 98/119/97 99/118/97
f 92/114/98 91/112/98 106/121/98 107/120/98
f 85/115/99 84/113/99 99/118/99 100/122/99
f 93/116/100 92/114/100 107/120/100 108/123/100
f 86/117/101 85/115/101 100/122/101 101/124/101
f 94/102/102 93/116/102 108/123/102 109/125/102
f 87/104/103 86/117/103 101/124/103 102/126/103
f 95/101/104 94/102/104 109/125/104 110/127/104
f 88/103/105 87/104/105 102/126/105 103/128/105
f 96/105/106 95/101/106 110/127/106 111/129/106
f 89/106/107 88/103/107 103/128/107 104/130/107
f 97/107/108 96/105/108 111/129/108 112/131/108
f 90/108/109 89/106/109 104/130/109 105/132/109
f 83/109/110 82/133/110 98/119/110
f 308/134/111 97/107/111 112/131/111
f 91/112/112 90/108/112 105/132/112 106/121/112
f 103/128/113 102/126/113 117/136/113 118/135/113
f 111/129/114 110/127/114 125/138/114 126/137/114
f 104/130/115 103/128/115 118/135/115 119/139/115
f 112/131/116 111/129/116 126/137/116 127/140/116
f 105/132/117 104/130/117 119/139/117 120/141/117
f 98/119/118 82/143/118 113/142/118
f 308/144/119 112/131/119 127/140/119
f 106/121/120 105/132/120 120/141/120 121/145/120
f 99/118/121 98/119/121 113/142/121 114/146/121
f 107/120/122 106/121/122 121/145/122 122/147/122
f 100/122/123 99/118/123 114/146/123 115/148/123
f 108/123/124 107/120/124 122/147/124 123/149/124
f 101/124/125 100/122/125 115/148/125 116/150/125
f 109/125/126 108/123/126 123/149/126 124/151/126
f 102/126/127 101/124/127 116/150/127 117/136/127
f 110/127/128 109/125/128 124/151/128 125/138/128
f 122/147/129 121/145/129 136/153/129 137/152/129
f 115/148/130 114/146/130 129/155/130 130/154/130
f 123/149/131 122/147/131 137/152/131 138/156/131
f 116/150/132 115/148/132 130/154/132 131/157/132
f 124/151/133 123/149/133 138/156/133 139/158/133
f 117/136/134 116/150/134 131/157/134 132/159/134
f 125/138/135 124/151/135 139/158/135 140/160/135
f 118/135/136 117/136/136 132/159/136 133/161/136
f 126/137/137 125/138/137 140/160/137 141/162/137
f 119/139/138 118/135/138 133/161/138 134/163/138
f 127/140/139 126/137/139 141/162/139 142/164/139
f 120/141/140 119/139/140 134/163/140 135/165/140
f 113/142/141 82/167/141 128/166/141
f 308/168/142 127/140/142 142/164/142
f 121/145/143 120/141/143 135/165/143 136/153/143
f 114/146/144 113/142/144 128/166/144 129/155/144
f 141/162/145 140/160/145 155/170/145 156/169/145
f 134/163/146 133/161/146 148/172/146 149/171/146
f 142/164/147 141/162/147 156/169/147 157/173/147
f 135/165/148 134/163/148 149/171/148 150/174/148
f 128/166/149 82/176/149 143/175/149
f 308/177/150 142/164/150 157/173/150
f 136/153/151 135/165/151 150/174/151 151/178/151
f 129/155/152 128/166/152 143/175/152 144/179/152
f 137/152/153 136/153/153 151/178/153 152/180/153
f 130/154/154 129/155/154 144/179/154 145/181/154
f 138/156/155 137/152/155 152/180/155 153/182/155
f 131/157/156 130/154/156 145/181/156 146/183/156
f 139/158/157 138/156/157 153/182/157 154/184/157
f 132/159/158 131/157/158 146/183/158 147/185/158
f 140/160/159 139/158/159 154/184/159 155/170/159
f 133/161/160 132/159/160 147/185/160 148/172/160
f 145/181/161 144/179/161 159/187/161 160/186/161
f 153/182/162 152/180/162 167/189/162 168/188/162
f 146/183/163 145/181/163 160/186/163 161/190/163
f 154/184/164 153/182/164 168/188/164 169/191/164
f 147/185/165 146/183/165 161/190/165 162/192/165
f 155/170/166 154/184/166 169/191/166 170/193/166
f 148/172/167 147/185/167 162/192/167 163/194/167
f 156/169/168 155/170/168 170/193/168 171/195/168
f 149/171/169 148/172/169 163/194/169 164/196/169
f 157/173/170 156/169/170 171/195/170 172/197/170
f 150/174/171 149/171/171 164/196/171 165/198/171
f 143/175/172 82/200/172 158/199/172
f 308/201/173 157/173/173 172/197/173
f 151/178/174 150/174/174 165/198/174 166/202/174
f 144/179/175 143/175/175 158/199/175 159/187/175
f 152/180/176 151/178/176 166/202/176 167/189/176
f 164/196/177 163/194/177 178/204/177 179/203/177
f 172/197/178 171/195/178 186/206/178 187/205/178
f 165/198/179 164/196/179 179/203/179 180/207/179
f 158/199/180 82/209/180 173/208/180
f 308/210/181 172/197/181 187/205/181
f 166/202/182 165/198/182 180/207/182 181/211/182
f 159/187/183 158/199/183 173/208/183 174/212/183
f 167/189/184 166/202/184 181/211/184 182/213/184
f 160/186/185 159/187/185 174/212/185 175/214/185
f 168/188/186 167/189/186 182/213/186 183/215/186
f 161/190/187 160/186/187 175/214/187 176/216/187
f 169/191/188 168/188/188 183/215/188 184/217/188
f 162/192/189 161/190/189 176/216/189 177/218/189
f 170/193/190 169/191/190 184/217/190 185/219/190
f 163/194/191 162/192/191 177/218/191 178/204/191
f 171/195/192 170/193/192 185/219/192 186/206/192
f 183/215/193 182/213/193 197/221/193 198/220/193
f 176/216/194 175/214/194 190/223/194 191/222/194
f 184/217/195 183/215/195 198/220/195 199/224/195
f 177/218/196 176/216/196 191/222/196 192/225/196
f 185/219/197 184/217/197 199/224/197 200/226/197
f 178/204/198 177/218/198 192/225/198 193/227/198
f 186/206/199 185/219/199 200/226/199 201/228/199
f 179/203/200 178/204/200 193/227/200 194/229/200
f 187/205/201 186/206/201 201/228/201 202/230/201
f 180/207/202 179/203/202 194/229/202 195/231/202
f 173/208/203 82/233/203 188/232/203
f 308/234/204 187/205/204 202/230/204
f 181/211/205 180/207/205 195/231/205 196/235/205
f 174/212/206 173/208/206 188/232/206 189/236/206
f 182/213/207 181/211/207 196/235/207 197/221/207
f 175/214/208 174/212/208 189/236/208 190/223/208
f 202/230/209 201/228/209 216/238/209 217/237/209
f 195/231/210 194/229/210 209/240/210 210/239/210
f 188/232/211 82/242/211 203/241/211
f 308/243/212 202/230/212 217/237/212
f 196/235/213 195/231/213 210/239/213 211/244/213
f 189/236/214 188/232/214 203/241/214 204/245/214
f 197/221/215 196/235/215 211/244/215 212/246/215
f 190/223/216 189/236/216 204/245/216 205/247/216
f 198/220/217 197/221/217 212/246/217 213/248/217
f 191/222/218 190/223/218 205/247/218 206/249/218
f 199/224/219 198/220/219 213/248/219 214/250/219
f 192/225/220 191/222/220 206/249/220 207/251/220
f 200/226/221 199/224/221 214/250/221 215/252/221
f 193/227/222 192/225/222 207/251/222 208/253/222
f 201/228/223 200/226/223 215/252/223 216/238/223
f 194/229/224 193/227/224 208/253/224 209/240/224
f 214/250/225 213/248/225 228/255/225 229/254/225
f 207/251/226 206/249/226 221/257/226 222/256/226
f 215/252/227 214/250/227 229/254/227 230/258/227
f 208/253/228 207/251/228 222/256/228 223/259/228
f 216/238/229 215/252/229 230/258/229 231/260/229
f 209/240/230 208/253/230 223/259/230 224/261/230
f 217/237/231 216/238/231 231/260/231 232/262/231
f 210/239/232 209/240/232 224/261/232 225/263/232
f 203/241/233 82/265/233 218/264/233
f 308/266/234 217/237/234 232/262/234
f 211/244/235 210/239/235 225/263/235 226/267/235
f 204/245/236 203/241/236 218/264/236 219/268/236
f 212/246/237 211/244/237 226/267/237 227/269/237
f 205/247/238 204/245/238 219/268/238 220/270/238
f 213/248/239 212/246/239 227/269/239 228/255/239
f 206/249/240 205/247/240 220/270/240 221/257/240
f 218/264/241 82/272/241 233/271/241
f 308/273/242 232/262/242 247/274/242
f 226/267/243 225/263/243 240/276/243 241/275/243
f 219/268/244 218/264/244 233/271/244 234/277/244
f 227/269/245 226/267/245 241/275/245 242/278/245
f 220/270/246 219/268/246 234/277/246 235/279/246
f 228/255/247 227/269/247 242/278/247 243/280/247
f 221/257/248 220/270/248 235/279/248 236/281/248
f 229/254/249 228/255/249 243/280/249 244/282/249
f 222/256/250 221/257/250 236/281/250 237/283/250
f 230/258/251 229/254/251 244/282/251 245/284/251
f 223/259/252 222/256/252 237/283/252 238/285/252
f 231/260/253 230/258/253 245/284/253 246/286/253
f 224/261/254 223/259/254 238/285/254 239/287/254
f 232/262/255 231/260/255 246/286/255 247/274/255
f 225/263/256 224/261/256 239/287/256 240/276/256
f 237/283/257 236/281/257 251/289/257 252/288/257
f 245/284/258 244/282/258 259/291/258 260/290/258
f 238/285/259 237/283/259 252/288/259 253/292/259
f 246/286/260 245/284/260 260/290/260 261/293/260
f 239/287/261 238/285/261 253/292/261 254/294/261
f 247/274/262 246/286/262 261/293/262 262/295/262
f 240/276/263 239/287/263 254/294/263 255/296/263
f 233/271/264 82/298/264 248/297/264
f 308/299/265 247/274/265 262/295/265
f 241/275/266 240/276/266 255/296/266 256/300/266
f 234/277/267 233/271/267 248/297/267 249/301/267
f 242/278/268 241/275/268 256/300/268 257/302/268
f 235/279/269 234/277/269 249/301/269 250/303/269
f 243/280/270 242/278/270 257/302/270 258/304/270
f 236/281/271 235/279/271 250/303/271 251/289/271
f 244/282/272 243/280/272 258/304/272 259/291/272
f 256/300/273 255/296/273 270/306/273 271/305/273
f 249/301/274 248/297/274 263/308/274 264/307/274
f 257/302/275 256/300/275 271/305/275 272/309/275
f 250/303/276 249/301/276 264/307/276 265/310/276
f 258/304/277 257/302/277 272/309/277 273/311/277
f 251/289/278 250/303/278 265/310/278 266/312/278
f 259/291/279 258/304/279 273/311/279 274/313/279
f 252/288/280 251/289/280 266/312/280 267/314/280
f 260/290/281 259/291/281 274/313/281 275/315/281
f 253/292/282 252/288/282 267/314/282 268/316/282
f 261/293/283 260/290/283 275/315/283 276/317/283
f 254/294/284 253/292/284 268/316/284 269/318/284
f 262/295/285 261/293/285 276/317/285 277/319/285
f 255/296/286 254/294/286 269/318/286 270/306/286
f 248/297/287 82/320/287 263/308/287
f 308/321/288 262/295/288 277/319/288
f 275/315/289 274/313/289 289/323/289 290/322/289
f 268/316/290 267/314/290 282/325/290 283/324/290
f 276/317/291 275/315/291 290/322/291 291/326/291
f 269/318/292 268/316/292 283/324/292 284/327/292
f 277/319/293 276/317/293 291/326/293 292/328/293
f 270/306/294 269/318/294 284/327/294 285/329/294
f 263/308/295 82/331/295 278/330/295
f 308/332/296 277/319/296 292/328/296
f 271/305/297 270/306/297 285/329/297 286/333/297
f 264/307/298 263/308/298 278/330/298 279/334/298
f 272/309/299 271/305/299 286/333/299 287/335/299
f 265/310/300 264/307/300 279/334/300 280/336/300
f 273/311/301 272/309/301 287/335/301 288/337/301
f 266/312/302 265/310/302 280/336/302 281/338/302
f 274/313/303 273/311/303 288/337/303 289/323/303
f 267/314/304 266/312/304 281/338/304 282/325/304
f 279/334/305 278/330/305 293/340/305 294/339/305
f 287/335/306 286/333/306 301/342/306 302/341/306
f 280/336/307 279/334/307 294/339/307 295/343/307
f 288/337/308 287/335/308 302/341/308 303/344/308
f 281/338/309 280/336/309 295/343/309 296/345/309
f 289/323/310 288/337/310 303/344/310 304/346/310
f 282/325/311 281/338/311 296/345/311 297/347/311
f 290/322/312 289/323/312 304/346/312 305/348/312
f 283/324/313 282/325/313 297/347/313 298/349/313
f 291/326/314 290/322/314 305/348/314 306/350/314
f 284/327/315 283/324/315 298/349/315 299/351/315
f 292/328/316 291/326/316 306/350/316 307/352/316
f 285/329/317 284/327/317 299/351/317 300/353/317
f 278/330/318 82/354/318 293/340/318
f 308/355/319 292/328/319 307/352/319
f 286/333/320 285/329/320 300/353/320 301/342/320
f 298/349/321 297/347/321 313/357/321 314/356/321
f 306/350/322 305/348/322 321/359/322 322/358/322
f 299/351/323 298/349/323 314/356/323 315/360/323
f 307/352/324 306/350/324 322/358/324 323/361/324
f 300/353/325 299/351/325 315/360/325 316/362/325
f 293/340/326 82/364/326 309/363/326
f 308/365/327 307/352/327 323/361/327
f 301/342/328 300/353/328 316/362/328 317/366/328
f 294/339/329 293/340/329 309/363/329 310/367/329
f 302/341/330 301/342/330 317/366/330 318/368/330
f 295/343/331 294/339/331 310/367/331 311/369/331
f 303/344/332 302/341/332 318/368/332 319/370/332
f 296/345/333 295/343/333 311/369/333 312/371/333
f 304/346/334 303/344/334 319/370/334 320/372/334
f 297/347/335 296/345/335 312/371/335 313/357/335
f 305/348/336 304/346/336 320/372/336 321/359/336
f 318/368/337 317/366/337 332/374/337 333/373/337
f 311/369/338 310/367/338 325/376/338 326/375/338
f 319/370/339 318/368/339 333/373/339 334/377/339
f 312/371/340 311/369/340 326/375/340 327/378/340
f 320/372/341 319/370/341 334/377/341 335/379/341
f 313/357/342 312/371/342 327/378/342 328/380/342
f 321/359/343 320/372/343 335/379/343 336/381/343
f 314/356/344 313/357/344 328/380/344 329/382/344
f 322/358/345 321/359/345 336/381/345 337/383/345
f 315/360/346 314/356/346 329/382/346 330/384/346
f 323/361/347 322/358/347 337/383/347 338/385/347
f 316/362/348 315/360/348 330/384/348 331/386/348
f 309/363/349 82/388/349 324/387/349
f 308/389/350 323/361/350 338/385/350
f 317/366/351 316/362/351 331/386/351 332/374/351
f 310/367/352 309/363/352 324/387/352 325/376/352
f 337/383/353 336/381/353 351/391/353 352/390/353
f 330/384/354 329/382/354 344/393/354 345/392/354
f 338/385/355 337/383/355 352/390/355 353/394/355
f 331/386/356 330/384/356 345/392/356 346/395/356
f 324/387/357 82/397/357 339/396/357
f 308/398/358 338/385/358 353/394/358
f 332/374/359 331/386/359 346/395/359 347/399/359
f 325/376/360 324/387/360 339/396/360 340/400/360
f 333/373/361 332/374/361 347/399/361 348/401/361
f 326/375/362 325/376/362 340/400/362 341/402/362
f 334/377/363 333/373/363 348/401/363 349/403/363
f 327/378/364 326/375/364 341/402/364 342/404/364
f 335/379/365 334/377/365 349/403/365 350/405/365
f 328/380/366 327/378/366 342/404/366 343/406/366
f 336/381/367 335/379/367 350/405/367 351/391/367
f 329/382/368 328/380/368 343/406/368 344/393/368
f 349/403/369 348/401/369 363/408/369 364/407/369
f 342/404/370 341/402/370 356/410/370 357/409/370
f 350/405/371 349/403/371 364/407/371 365/411/371
f 343/406/372 342/404/372 357/409/372 358/412/372
f 351/391/373 350/405/373 365/411/373 366/413/373
f 344/393/374 343/406/374 358/412/374 359/414/374
f 352/390/375 351/391/375 366/413/375 367/415/375
f 345/392/376 344/393/376 359/414/376 360/416/376
f 353/394/377 352/390/377 367/415/377 368/417/377
f 346/395/378 345/392/378 360/416/378 361/418/378
f 339/396/379 82/420/379 354/419/379
f 308/421/380 353/394/380 368/417/380
f 347/399/381 346/395/381 361/418/381 362/422/381
f 340/400/382 339/396/382 354/419/382 355/423/382
f 348/401/383 347/399/383 362/422/383 363/408/383
f 341/402/384 340/400/384 355/423/384 356/410/384
f 368/424/385 367/427/385 382/426/385 383/425/385
f 361/428/386 360/431/386 375/430/386 376/429/386
f 354/432/387 82/434/387 369/433/387
f 308/435/388 368/424/388 383/425/388
f 362/436/389 361/428/389 376/429/389 377/437/389
f 355/438/390 354/432/390 369/433/390 370/439/390
f 363/440/391 362/436/391 377/437/391 378/441/391
f 356/442/392 355/438/392 370/439/392 371/443/392
f 364/444/393 363/440/393 378/441/393 379/445/393
f 357/446/394 356/442/394 371/443/394 372/447/394
f 365/448/395 364/444/395 379/445/395 380/449/395
f 358/450/396 357/446/396 372/447/396 373/451/396
f 366/452/397 365/448/397 380/449/397 381/453/397
f 359/454/398 358/450/398 373/451/398 374/455/398
f 367/427/399 366/452/399 381/453/399 382/426/399
f 360/431/400 359/454/400 374/455/400 375/430/400
f 372/447/401 371/443/401 386/457/401 387/456/401
f 380/449/402 379/445/402 394/459/402 395/458/402
f 373/451/403 372/447/403 387/456/403 388/460/403
f 381/453/404 380/449/404 395/458/404 396/461/404
f 374/455/405 373/451/405 388/460/405 389/462/405
f 382/426/406 381/453/406 396/461/406 397/463/406
f 375/430/407 374/455/407 389/462/407 390/464/407
f 383/425/408 382/426/408 397/463/408 398/465/408
f 376/429/409 375/430/409 390/464/409 391/466/409
f 369/433/410 82/468/410 384/467/410
f 308/469/411 383/425/411 398/465/411
f 377/437/412 376/429/412 391/466/412 392/470/412
f 370/439/413 369/433/413 384/467/413 385/471/413
f 378/441/414 377/437/414 392/470/414 393/472/414
f 371/443/415 370/439/415 385/471/415 386/457/415
f 379/445/416 378/441/416 393/472/416 394/459/416
f 391/466/417 390/464/417 405/474/417 406/473/417
f 384/467/418 82/476/418 399/475/418
f 308/477/419 398/465/419 413/478/419
f 392/470/420 391/466/420 406/473/420 407/479/420
f 385/471/421 384/467/421 399/475/421 400/480/421
f 393/472/422 392/470/422 407/479/422 408/481/422
f 386/457/423 385/471/423 400/480/423 401/482/423
f 394/459/424 393/472/424 408/481/424 409/483/424
f 387/456/425 386/457/425 401/482/425 402/484/425
f 395/458/426 394/459/426 409/483/426 410/485/426
f 388/460/427 387/456/427 402/484/427 403/486/427
f 396/461/428 395/458/428 410/485/428 411/487/428
f 389/462/429 388/460/429 403/486/429 404/488/429
f 397/463/430 396/461/430 411/487/430 412/489/430
f 390/464/431 389/462/431 404/488/431 405/474/431
f 398/465/432 397/463/432 412/489/432 413/478/432
f 410/485/433 409/483/433 424/491/433 425/490/433
f 403/486/434 402/484/434 417/493/434 418/492/434
f 411/487/435 410/485/435 425/490/435 426/494/435
f 404/488/436 403/486/436 418/492/436 419/495/436
f 412/489/437 411/487/437 426/494/437 427/496/437
f 405/474/438 404/488/438 419/495/438 420/497/438
f 413/478/439 412/489/439 427/496/439 428/498/439
f 406/473/440 405/474/440 420/497/440 421/499/440
f 399/475/441 82/501/441 414/500/441
f 308/502/442 413/478/442 428/498/442
f 407/479/443 406/473/443 421/499/443 422/503/443
f 400/480/444 399/475/444 414/500/444 415/504/444
f 408/481/445 407/479/445 422/503/445 423/505/445
f 401/482/446 400/480/446 415/504/446 416/506/446
f 409/483/447 408/481/447 423/505/447 424/491/447
f 402/484/448 401/482/448 416/506/448 417/493/448
f 414/500/449 82/508/449 429/507/449
f 308/509/450 428/498/450 443/510/450
f 422/503/451 421/499/451 436/512/451 437/511/451
f 415/504/452 414/500/452 429/507/452 430/513/452
f 423/505/453 422/503/453 437/511/453 438/514/453
f 416/506/454 415/504/454 430/513/454 431/515/454
f 424/491/455 423/505/455 438/514/455 439/516/455
f 417/493/456 416/506/456 431/515/456 432/517/456
f 425/490/457 424/491/457 439/516/457 440/518/457
f 418/492/458 417/493/458 432/517/458 433/519/458
f 426/494/459 425/490/459 440/518/459 441/520/459
f 419/495/460 418/492/460 433/519/460 434/521/460
f 427/496/461 426/494/461 441/520/461 442/522/461
f 420/497/462 419/495/462 434/521/462 435/523/462
f 428/498/463 427/496/463 442/522/463 443/510/463
f 421/499/464 420/497/464 435/523/464 436/512/464
f 433/519/465 432/517/465 447/525/465 448/524/465
f 441/520/466 440/518/466 455/527/466 456/526/466
f 434/521/467 433/519/467 448/524/467 449/528/467
f 442/522/468 441/520/468 456/526/468 457/529/468
f 435/523/469 434/521/469 449/528/469 450/530/469
f 443/510/470 442/522/470 457/529/470 458/531/470
f 436/512/471 435/523/471 450/530/471 451/532/471
f 429/507/472 82/534/472 444/533/472
f 308/535/473 443/510/473 458/531/473
f 437/511/474 436/512/474 451/532/474 452/536/474
f 430/513/475 429/507/475 444/533/475 445/537/475
f 438/514/476 437/511/476 452/536/476 453/538/476
f 431/515/477 430/513/477 445/537/477 446/539/477
f 439/516/478 438/514/478 453/538/478 454/540/478
f 432/517/479 431/515/479 446/539/479 447/525/479
f 440/518/480 439/516/480 454/540/480 455/527/480
f 452/536/481 451/532/481 466/542/481 467/541/481
f 445/537/482 444/533/482 459/544/482 460/543/482
f 453/538/483 452/536/483 467/541/483 468/545/483
f 446/539/484 445/537/484 460/543/484 461/546/484
f 454/540/485 453/538/485 468/545/485 469/547/485
f 447/525/486 446/539/486 461/546/486 462/548/486
f 455/527/487 454/540/487 469/547/487 470/549/487
f 448/524/488 447/525/488 462/548/488 463/550/488
f 456/526/489 455/527/489 470/549/489 471/551/489
f 449/528/490 448/524/490 463/550/490 464/552/490
f 457/529/491 456/526/491 471/551/491 472/553/491
f 450/530/492 449/528/492 464/552/492 465/554/492
f 458/531/493 457/529/493 472/553/493 473/555/493
f 451/532/494 450/530/494 465/554/494 466/542/494
f 444/533/495 82/556/495 459/544/495
f 308/557/496 458/531/496 473/555/496
f 471/551/497 470/549/497 479/4/497 480/1/497
f 464/552/498 463/550/498 2/8/498 477/5/498
f 472/553/499 471/551/499 480/1/499 481/9/499
f 465/554/500 464/552/500 477/5/500 3/11/500
f 473/555/501 472/553/501 481/9/501 482/13/501
f 466/542/502 465/554/502 3/11/502 4/15/502
f 459/544/503 82/558/503 474/17/503
f 308/559/504 473/555/504 482/13/504
f 467/541/505 466/542/505 4/15/505 5/21/505
f 460/543/506 459/544/506 474/17/506 475/23/506
f 468/545/507 467/541/507 5/21/507 478/25/507
f 461/546/508 460/543/508 475/23/508 1/27/508
f 469/547/509 468/545/509 478/25/509 6/29/509
f 462/548/510 461/546/510 1/27/510 476/31/510
f 470/549/511 469/547/511 6/29/511 479/4/511
f 463/550/512 462/548/512 476/31/512 2/8/512
